<svg xmlns="http://www.w3.org/2000/svg" height="1390.213" width="1122.667"><defs><clipPath id="f" clipPathUnits="userSpaceOnUse"><path d="M520.534 1038.85L3.014 521.329l159.255-159.254 676.716 676.775zm0-477.706L241.838 282.506l159.255-159.255L520.534 3.811h318.451L560.347 282.506l278.638 278.638z"/></clipPath><clipPath id="g" clipPathUnits="userSpaceOnUse"><path d="M191.203 609.544h746.876V27.334H191.203z"/></clipPath><clipPath id="a" clipPathUnits="userSpaceOnUse"><path d="M191.203 609.544h746.876V27.334H191.203z"/></clipPath><clipPath id="j" clipPathUnits="userSpaceOnUse"><path d="M401.093 123.251l236.177 81.745-76.923 77.451z"/></clipPath><clipPath id="b" clipPathUnits="userSpaceOnUse"><path d="M-32768 32767h65535v-65535h-65535z"/></clipPath><clipPath id="m" clipPathUnits="userSpaceOnUse"><path d="M520.534 1038.85L3.014 521.33 162.27 362.075l676.715 676.775zm318.451-477.706L560.348 282.507 838.985 3.81H520.534L401.093 123.251 241.838 282.507l278.696 278.637z"/></clipPath><clipPath id="d" clipPathUnits="userSpaceOnUse"><path d="M-32768 32767h65535v-65535h-65535z"/></clipPath><radialGradient id="e" spreadMethod="pad" gradientTransform="translate(26.538 968.28) scale(1266.3132)" gradientUnits="userSpaceOnUse" r="1" cy="0" cx="0" fy="0" fx="0"><stop offset="0" stop-opacity=".1" stop-color="#fff"/><stop offset="1" stop-opacity="0" stop-color="#fff"/></radialGradient><radialGradient id="o" spreadMethod="pad" gradientTransform="translate(26.538 968.28) scale(1266.3132)" gradientUnits="userSpaceOnUse" r="1" cy="0" cx="0" fy="0" fx="0"><stop offset="0" stop-color="#fff"/><stop offset="1" stop-color="#fff"/></radialGradient><linearGradient id="c" spreadMethod="pad" gradientTransform="scale(167.72861) rotate(45 .669 3.497)" gradientUnits="userSpaceOnUse" y2="0" x2="1" y1="0" x1="0"><stop offset="0" stop-opacity=".4" stop-color="#fff"/><stop offset="1" stop-opacity="0" stop-color="#fff"/></linearGradient><linearGradient id="l" spreadMethod="pad" gradientTransform="scale(167.72861) rotate(45 .669 3.497)" gradientUnits="userSpaceOnUse" y2="0" x2="1" y1="0" x1="0"><stop offset="0" stop-color="#1a237e"/><stop offset="1" stop-color="#1a237e"/></linearGradient><mask id="k" height="1" width="1" y="0" x="0" maskUnits="userSpaceOnUse"><g clip-path="url(#b)"><path d="M-32768 32767h65535v-65535h-65535z" fill="url(#c)"/></g></mask><mask id="n" height="1" width="1" y="0" x="0" maskUnits="userSpaceOnUse"><g clip-path="url(#d)"><path d="M-32768 32767h65535v-65535h-65535z" fill="url(#e)"/></g></mask></defs><path d="M694.045 642.022L322.53 1013.616l212.262 212.263 212.34-212.34-.002-.001 371.519-371.516zM694.045 5.08L4.02 695.108l212.34 212.338L1118.648 5.08z" fill="#54c5f8"/><path d="M534.79 1225.88l159.255 159.253h424.602l-371.518-371.515z" fill="#01579b"/><g clip-path="url(#j)" transform="matrix(1.33333 0 0 -1.33333 0 1390.213)"><g mask="url(#k)"><path d="M401.093 123.251l236.177 81.745-76.923 77.451z" fill="url(#l)"/></g></g><path d="M322.502 1013.57l212.3 212.3 212.302-212.3-212.302-212.3z" fill="#29b6f6"/><g clip-path="url(#m)" transform="matrix(1.33333 0 0 -1.33333 0 1390.213)"><g mask="url(#n)"><path d="M520.534 1038.85L3.014 521.33 162.27 362.075l676.715 676.775zm318.451-477.706L560.348 282.507 838.985 3.81H520.534L401.093 123.251 241.838 282.507l278.696 278.637z" fill="url(#o)"/></g></g></svg>